#!OML:ASF F:\VICON\USERDATA\INSTALL\rory3\rory3.ASF
:FULLY-SPECIFIED
:DEGREES
46
root -0.22252183511371953 16.942732964070494 16.05779475022218 3.6547643783488297 -2.4455529302443786 -5.159722152794888
lfemur -28.463874515525564 7.66803223618858 -9.614846664642819
ltibia 110.59751924225078
lfoot 5.953607798661849 -8.301743265743669
ltoes -0.2625087780542339
rfemur -17.890772759541786 7.087045293312277 36.783325904619076
rtibia 56.36191401266128
rfoot -25.40436052371671 -17.57433883635952
rtoes -3.6045810894805355
lowerback 18.08563249170542 0.4451233072443842 3.994022779898737
upperback -0.21512786927482871 1.6462352381486522 3.0705602744640452
thorax -10.165650620931185 0.6748540516231559 0.5617855127655629
lowerneck -21.242676067436516 -3.936289076088809 -1.7430794206312834
upperneck 12.376291426667144 -5.201146820117161 2.193830603695147
head 7.400655160603845 -2.35479654105331 0.36775579364955063
lclavicle -6.589930056552124e-16 -5.762307144362227e-16
lhumerus -52.12580339070232 -10.678781087869929 97.75274376928029
lradius 106.53182363446062
lwrist 35.84059879900714
lhand -23.83792888806152 3.000482948903503
lfingers 7.125020000000058
lthumb 2.633188879722848 32.90141711523974
rclavicle -6.589930056552124e-16 -5.762307144362227e-16
rhumerus -39.6483862786087 12.124164811077922 -96.99830780069598
rradius 111.38727215372698
rwrist -17.679467366070906
rhand -19.91168912029736 33.1296960542545
rfingers 7.125020000000058
rthumb 6.424159774495678 9.94309893386904
47
root -0.2034566896433998 17.02123274157519 17.074993780993818 3.9396403779627605 -1.2437249733530242 -5.201271905336733
lfemur -34.00886836179215 7.134533745946936 -10.105475690882464
ltibia 110.6749113303107
lfoot 3.326545777827121 -7.058710192203771
ltoes -1.7774612025124696
rfemur -13.621430857796499 6.447488867966653 36.99378753729952
rtibia 54.77068841366065
rfoot -25.459821263087967 -17.633076141184695
rtoes -8.604964917988818
lowerback 17.77600107554024 0.6700139629013521 4.334631975316784
upperback -0.3055339323039305 1.9928830741611914 2.918035359069532
thorax -10.07574583057772 0.8201945968707516 0.14310687271852185
lowerneck -21.20629155674587 -4.292064169263316 -1.8264225454945437
upperneck 12.216006664999114 -5.697623880785755 2.4906327854692405
head 7.367561353190357 -2.5755805488218773 0.4245154536510919
lclavicle -5.523064237137942e-16 -4.936229792358497e-16
lhumerus -54.57512302916898 -11.038388648787565 98.09934801957323
lradius 107.66162607434697
lwrist 36.08927771613659
lhand -23.447483111900816 2.896240501340282
lfingers 7.125020000000058
lthumb 3.0101201574797525 32.785134060432
rclavicle -5.523064237137942e-16 -4.936229792358497e-16
rhumerus -37.016421392699236 12.871369142325708 -96.74098476123893
rradius 113.08558102796411
rwrist -17.937926765662745
rhand -19.82131744480971 33.252537345674526
rfingers 7.125020000000058
rthumb 6.511638186957676 10.027273487240757
48
root -0.19110584532940994 17.151466742945143 18.014659526047225 4.130084822655846 -0.027151043943318465 -5.08903628090961
lfemur -38.575781161805935 6.142668926473693 -11.089765128827352
ltibia 108.98508585776149
lfoot 1.1721804380503937 -6.108210964681925
ltoes -3.8256031192216677
rfemur -9.327717532254539 5.547005664666289 36.923437386882554
rtibia 52.298463459052385
rfoot -23.52614876780367 -16.4607149145305
rtoes -12.309048294415318
lowerback 17.40234390996202 0.8814724675126223 4.653954148753085
upperback -0.42779849185950203 2.303773899428466 2.693059041184263
thorax -9.987076558453966 0.9481573463548125 -0.3249147914171059
lowerneck -21.04697432636172 -4.651059677886738 -1.9124162622459546
upperneck 12.200346768610052 -6.196569492496549 2.7419477328939252
head 7.360075564303336 -2.8021711253435115 0.4672067963041292
lclavicle -4.577227583225461e-16 -4.203865691451106e-16
lhumerus -56.947965838105986 -11.312686762473277 98.39655307484354
lradius 109.06178630432615
lwrist 36.52200764328941
lhand -23.10236531216146 2.7417420720910766
lfingers 7.125020000000058
lthumb 3.343298772742312 32.61945443649372
rclavicle -4.577227583225461e-16 -4.203865691451106e-16
rhumerus -35.034496433848325 13.426939221951397 -96.45150294814096
rradius 114.9309705228766
rwrist -18.298606333205043
rhand -19.77314896470482 33.29001229839679
rfingers 7.125020000000058
rthumb 6.558378600534539 10.512173320985784
49
root -0.18964033153643467 17.326390567844374 18.596457084912437 4.203074726523267 1.1638045524281597 -4.946877919259887
lfemur -41.96928399027243 4.725152753028159 -12.32385796036322
ltibia 105.31731306643294
lfoot -0.49701948688470354 -5.61692668560039
ltoes -6.351540059454192
rfemur -5.173679789636209 4.503214316995477 36.62947034510598
rtibia 49.0692243916784
rfoot -19.49105635121913 -14.466084715435688
rtoes -14.311064260144052
lowerback 16.967743898016465 1.0538097706443867 5.008896941217448
upperback -0.5847980984864244 2.559788529470098 2.4405279953093943
thorax -9.911411168732535 1.0479844631885227 -0.8366036191374467
lowerneck -20.767721379343065 -4.9909905844968225 -1.981059932210491
upperneck 12.339807075878104 -6.671863429761762 2.9165496478285435
head 7.379651028913771 -3.022740745978046 0.4858913381996871
lclavicle -4.3736289974770595e-16 -4.046218697853792e-16
lhumerus -59.1778170203251 -11.254652390930534 98.50435585225605
lradius 110.23889340608693
lwrist 37.012410452499765
lhand -22.824189240394674 2.6523139258789907
lfingers 7.125020000000058
lthumb 3.611866044449302 32.52099212405705
rclavicle -4.3736289974770595e-16 -4.046218697853792e-16
rhumerus -33.76434075207688 13.745899425343922 -96.13449890818873
rradius 116.51571001283526
rwrist -18.714984758699845
rhand -19.72431993004171 33.14112698226396
rfingers 7.125020000000058
rthumb 6.605673167076098 11.420526951382737
50
root -0.20054968463612882 17.53840091284448 18.92389882254767 4.158101878421274 2.3100058001399795 -4.82070744439951
lfemur -44.18252224897617 2.9179916107501844 -13.721739795107165
ltibia 99.28104526733706
lfoot -1.7613588108918112 -5.711791690800194
ltoes -9.34656978286424
rfemur -1.210915538320565 3.4363506061785745 36.10387944824423
rtibia 44.97644937576791
rfoot -13.169852934899682 -11.95137443521055
rtoes -14.327378668068322
lowerback 16.402779575788156 1.181176261024382 5.391064900155894
upperback -0.7876129026201353 2.752619293940992 2.156604714546319
thorax -9.839531497817555 1.1156221529682067 -1.4121851764620814
lowerneck -20.388264883871415 -5.313865553050901 -2.0363458371661185
upperneck 12.626928812630172 -7.131161594999612 3.0134706709984638
head 7.427300441111694 -3.2386173805257066 0.4806544835447396
lclavicle -6.184878765158212e-16 -5.448674633318252e-16
lhumerus -61.44606428808913 -10.820702461040497 98.3338400794264
lradius 110.94974176146067
lwrist 37.4284945774297
lhand -22.712706135860152 2.598691496323193
lfingers 7.125020000000058
lthumb 3.7195103269672956 32.46290311588252
rclavicle -6.184878765158212e-16 -5.448674633318252e-16
rhumerus -33.261421683135374 13.78259309766775 -95.90695766067749
rradius 117.55036988858889
rwrist -19.20571120365919
rhand -19.57320698069256 32.64230884287397
rfingers 7.125020000000058
rthumb 6.751339989737092 12.895372171798064
51
root -0.2142067152599208 17.786417000867015 19.591242680979523 4.107659286105554 3.4470038405949652 -4.65032779996746
lfemur -45.10454609276552 0.926493209617343 -15.128586323705424
ltibia 91.12399618963724
lfoot -2.456042168118906 -6.411528756789616
ltoes -12.524364993462136
rfemur 2.799590105908491 2.5591873511446073 35.508402942535035
rtibia 40.53602628126596
rfoot -4.511635962674726 -9.1186439047451
rtoes -12.237724430740153
lowerback 15.66730071412598 1.2976757437016038 5.808946402105453
upperback -1.0280781244077934 2.9224489512667926 1.8363418782430496
thorax -9.709010956928179 1.1715480376410787 -2.016222642561521
lowerneck -19.91119493397005 -5.610068177326166 -2.0733428884771152
upperneck 13.111765704007716 -7.565062278976375 3.0857702353494094
head 7.522628428469685 -3.442787322261763 0.46753079085207616
lclavicle -7.4157827850195435e-16 -6.401767209453641e-16
lhumerus -63.73561019692826 -9.854893283600491 97.92774318029534
lradius 111.86450108821018
lwrist 37.949411378955446
lhand -22.75144980194428 2.771165942756971
lfingers 7.125020000000058
lthumb 3.6821337565552046 32.63597525630358
rclavicle -7.4157827850195435e-16 -6.401767209453641e-16
rhumerus -33.31226770802747 13.893968990204431 -95.77152662556767
rradius 118.70560238225116
rwrist -19.703505070863688
rhand -19.183557421388546 31.640628139164125
rfingers 7.125020000000058
rthumb 7.126554467548873 15.228563635145095
52
root -0.23393894774089258 18.0521237051955 20.41564267224937 4.118724316768594 4.503521378974398 -4.441746548717065
lfemur -45.18295983423039 -1.0419929715593224 -16.52587452647496
ltibia 80.48112908279924
lfoot -2.69407880045706 -7.844187029319658
ltoes -15.549456465522471
rfemur 6.730883265730027 2.110368913667737 34.87888234290895
rtibia 35.798267039845655
rfoot 5.815757302336481 -6.243387911504699
rtoes -8.258926589791706
lowerback 14.662428376221756 1.429520783553767 6.170889233014298
upperback -1.3232431303735124 3.086128094573592 1.4447033405876937
thorax -9.512146311046072 1.2280195981684816 -2.674830754107324
lowerneck -19.415703902334172 -5.907142757822307 -2.108462564622562
upperneck 13.727023371555253 -8.01809267605735 3.1606256459321154
head 7.659728357472354 -3.6504094890379157 0.4532052721723885
lclavicle -1.0280911378271742e-15 -8.620244622741157e-16
lhumerus -66.4668079663904 -8.513783001716277 97.23534041801379
lradius 112.90035742216116
lwrist 38.52112062566029
lhand -22.975149939094518 2.9074513592670232
lfingers 7.125020000000057
lthumb 3.466194123482886 32.77776403476766
rclavicle -1.0280911378271742e-15 -8.620244622741157e-16
rhumerus -33.91212899515052 14.169604397740315 -95.98491949340524
rradius 119.77767764896694
rwrist -20.42224569290721
rhand -18.42540073246686 29.716214238640852
rfingers 7.125020000000057
rthumb 7.856279569908004 18.6654730680709
